<?xml version="1.0" encoding="UTF-8"?>
<svg width="24px" height="24px" viewBox="0 0 24 24" version="1.1" xmlns="http://www.w3.org/2000/svg" xmlns:xlink="http://www.w3.org/1999/xlink">
    <title>icon/alarm</title>
    <g id="icon/alarm" stroke="none" stroke-width="1" fill="none" fill-rule="evenodd">
        <g id="Icon/common/alarm_on" transform="translate(4.000000, 2.000000)" fill="#FFFFFF">
            <path d="M7.9995411,2.7060492 C11.5486313,2.7060492 14.4666536,5.26245932 14.7875205,8.65343006 C14.7959644,8.74070438 14.7997419,8.90820742 14.8002974,9.21253114 L14.8001325,9.46731205 C14.7994086,9.74951533 14.7970754,10.1166385 14.7937423,10.5925562 L14.7937423,10.5925562 L14.7910758,10.9152894 C14.7804099,12.3953163 15.1439405,13.8789796 15.8416705,15.2053674 C16.0629887,15.625375 16.0514339,16.1208386 15.8123392,16.5317551 C15.5670226,16.9508537 15.1128315,17.2117675 14.6257538,17.2117675 L14.6257538,17.2117675 L10.211834,17.2117675 C10.2518312,17.3799524 10.2776073,17.5526828 10.2776073,17.7317769 C10.2776073,18.9827088 9.25545506,20 7.9995411,20 C6.74362715,20 5.72236378,18.9827088 5.72236378,17.7317769 C5.72236378,17.5526828 5.74813979,17.3799524 5.78813705,17.2117675 L5.78813705,17.2117675 L1.37332841,17.2117675 C0.886250668,17.2117675 0.432948391,16.9508537 0.186743037,16.5317551 C-0.0514628657,16.1208386 -0.0630176297,15.625375 0.159189369,15.2044583 C0.832920988,13.9217077 1.19556281,12.4953181 1.21333937,11.0743832 L1.21333937,11.0743832 L1.24533718,8.42978963 C1.24622601,8.38706158 1.24978132,8.34433353 1.25511429,8.30160548 C1.73952554,5.11154748 4.63888246,2.7060492 7.9995411,2.7060492 Z M8.74117918,0 C9.23270106,0 9.63000718,0.406371025 9.63000718,0.909107438 C9.63000718,1.41184385 9.23270106,1.81821488 8.74117918,1.81821488 L8.74117918,1.81821488 L7.25861409,1.81821488 C6.76709221,1.81821488 6.36978609,1.41184385 6.36978609,0.909107438 C6.36978609,0.406371025 6.76709221,0 7.25861409,0 L7.25861409,0 Z" id="Combined-Shape-Copy"></path>
        </g>
    </g>
</svg>