<?xml version="1.0" encoding="UTF-8"?>
<svg width="24px" height="24px" viewBox="0 0 24 24" version="1.1" xmlns="http://www.w3.org/2000/svg" xmlns:xlink="http://www.w3.org/1999/xlink">
    <title>Icon/common/card_view</title>
    <g id="Icon/common/card_view" stroke="none" stroke-width="1" fill="none" fill-rule="evenodd">
        <path d="M8.2371,12.5437 C10.0121,12.5437 11.4551,13.9877 11.4551,15.7627 L11.4551,15.7627 L11.4551,17.7817 C11.4551,19.5557 10.0121,20.9997 8.2371,20.9997 L8.2371,20.9997 L6.2191,20.9997 C4.4431,20.9997 3.0001,19.5557 3.0001,17.7817 L3.0001,17.7817 L3.0001,15.7627 C3.0001,13.9877 4.4431,12.5437 6.2191,12.5437 L6.2191,12.5437 Z M17.7809,12.5437 C19.5569,12.5437 20.9999,13.9877 20.9999,15.7627 L20.9999,15.7627 L20.9999,17.7817 C20.9999,19.5557 19.5569,20.9997 17.7809,20.9997 L17.7809,20.9997 L15.7629,20.9997 C13.9879,20.9997 12.5449,19.5557 12.5449,17.7817 L12.5449,17.7817 L12.5449,15.7627 C12.5449,13.9877 13.9879,12.5437 15.7629,12.5437 L15.7629,12.5437 Z M8.2371,14.4997 L6.2191,14.4997 C5.5221,14.4997 4.9551,15.0667 4.9551,15.7627 L4.9551,15.7627 L4.9551,17.7817 C4.9551,18.4777 5.5221,19.0437 6.2191,19.0437 L6.2191,19.0437 L8.2371,19.0437 C8.9341,19.0437 9.5001,18.4777 9.5001,17.7817 L9.5001,17.7817 L9.5001,15.7627 C9.5001,15.0667 8.9341,14.4997 8.2371,14.4997 L8.2371,14.4997 Z M17.7809,14.4997 L15.7629,14.4997 C15.0659,14.4997 14.4999,15.0667 14.4999,15.7627 L14.4999,15.7627 L14.4999,17.7817 C14.4999,18.4777 15.0659,19.0437 15.7629,19.0437 L15.7629,19.0437 L17.7809,19.0437 C18.4779,19.0437 19.0449,18.4777 19.0449,17.7817 L19.0449,17.7817 L19.0449,15.7627 C19.0449,15.0667 18.4779,14.4997 17.7809,14.4997 L17.7809,14.4997 Z M8.2371,3.0003 C10.0121,3.0003 11.4551,4.4443 11.4551,6.2183 L11.4551,6.2183 L11.4551,8.2373 C11.4551,10.0123 10.0121,11.4563 8.2371,11.4563 L8.2371,11.4563 L6.2191,11.4563 C4.4431,11.4563 3.0001,10.0123 3.0001,8.2373 L3.0001,8.2373 L3.0001,6.2183 C3.0001,4.4443 4.4431,3.0003 6.2191,3.0003 L6.2191,3.0003 Z M17.7809,3.0003 C19.5569,3.0003 20.9999,4.4443 20.9999,6.2183 L20.9999,6.2183 L20.9999,8.2373 C20.9999,10.0123 19.5569,11.4563 17.7809,11.4563 L17.7809,11.4563 L15.7629,11.4563 C13.9879,11.4563 12.5449,10.0123 12.5449,8.2373 L12.5449,8.2373 L12.5449,6.2183 C12.5449,4.4443 13.9879,3.0003 15.7629,3.0003 L15.7629,3.0003 Z M8.2371,4.9563 L6.2191,4.9563 C5.5221,4.9563 4.9551,5.5223 4.9551,6.2183 L4.9551,6.2183 L4.9551,8.2373 C4.9551,8.9333 5.5221,9.5003 6.2191,9.5003 L6.2191,9.5003 L8.2371,9.5003 C8.9341,9.5003 9.5001,8.9333 9.5001,8.2373 L9.5001,8.2373 L9.5001,6.2183 C9.5001,5.5223 8.9341,4.9563 8.2371,4.9563 L8.2371,4.9563 Z M17.7809,4.9563 L15.7629,4.9563 C15.0659,4.9563 14.4999,5.5223 14.4999,6.2183 L14.4999,6.2183 L14.4999,8.2373 C14.4999,8.9333 15.0659,9.5003 15.7629,9.5003 L15.7629,9.5003 L17.7809,9.5003 C18.4779,9.5003 19.0449,8.9333 19.0449,8.2373 L19.0449,8.2373 L19.0449,6.2183 C19.0449,5.5223 18.4779,4.9563 17.7809,4.9563 L17.7809,4.9563 Z" id="Combined-Shape" fill="#000000"></path>
    </g>
</svg>