<?xml version="1.0" encoding="UTF-8"?>
<svg width="151px" height="128px" viewBox="0 0 151 128" version="1.1" xmlns="http://www.w3.org/2000/svg" xmlns:xlink="http://www.w3.org/1999/xlink">
    <title>Illust/empty02</title>
    <defs>
        <rect id="path-1" x="0" y="0" width="151" height="128" rx="4"></rect>
        <polygon id="path-3" points="0 0.0544245283 110.336562 0.0544245283 110.336562 62.8301887 0 62.8301887"></polygon>
        <polygon id="path-5" points="0 0.820613208 110.336562 0.820613208 110.336562 63.5964623 0 63.5964623"></polygon>
    </defs>
    <g id="Illust/empty02" stroke="none" stroke-width="1" fill="none" fill-rule="evenodd">
        <g id="Group-42">
            <mask id="mask-2" fill="white">
                <use xlink:href="#path-1"></use>
            </mask>
            <use id="Mask" fill="#F7F4EF" xlink:href="#path-1"></use>
            <g mask="url(#mask-2)">
                <g transform="translate(11.000000, 28.000000)">
                    <polygon id="Fill-1" fill="#2F3343" points="88.5172175 0 0 51.2443268 62.916609 87.8157895 151 36.5721611"></polygon>
                    <polygon id="Fill-2" fill="#1F2128" points="0 57.1560854 62.596674 94 62.6097561 87.5129746 0 50.7105263"></polygon>
                    <polygon id="Fill-3" fill="#4E5364" points="62.6236318 87.5043404 62.6097561 94 151 42.1571766 150.945885 35.8684211"></polygon>
                    <polygon id="Fill-4" fill="#176A5F" points="87.6838979 4.94736842 72.4308943 13.6107671 125.789652 44.5263158 141.178862 35.7006035"></polygon>
                    <g id="Group-41" stroke-width="1" fill="none" transform="translate(13.504065, 16.078947)">
                        <path d="M66.5612746,7.40765658 L65.0961124,6.97040658 L64.886408,7.63569605 L56.2539241,2.68856447 C55.2289334,2.10207763 53.5042361,2.14601184 52.4010389,2.78828816 L42.9421952,8.29680132 L43.0017152,8.23473553 L41.2320318,8.15244605 L41.2320318,9.92097237 L41.2320318,9.92097237 L41.2320318,10.079275 L41.2465658,10.0646303 C41.2797863,10.4161039 41.5081772,10.755025 41.9594222,11.0137487 L51.5317693,16.4999461 C52.557452,17.0871303 54.2821494,17.0424987 55.3853466,16.4009197 L65.6857761,10.4014592 C66.1882361,10.1092618 66.4629973,9.74314342 66.5294383,9.37563026 L66.5612746,9.37563026 L66.5612746,7.40765658 Z" id="Fill-5" fill="#EAEAEA"></path>
                        <path d="M65.8273093,6.37115789 L56.2542702,0.884960526 C55.2292795,0.297776316 53.5038901,0.341710526 52.4013849,0.983986842 L42.1002633,6.98344737 C40.9977581,7.62572368 40.9340855,8.62296053 41.9590762,9.20944737 L51.5321153,14.6963421 C52.557106,15.2828289 54.2818033,15.2388947 55.3850006,14.5966184 L65.6861222,8.59715789 C66.7893194,7.95488158 66.8516079,6.95834211 65.8273093,6.37115789" id="Fill-7" fill="#F5F6F7"></path>
                        <path d="M84.0305484,18.5594145 L82.5660782,18.1221645 L82.3556818,18.7874539 L73.7231979,13.8403224 C72.6988993,13.2538355 70.9735099,13.2977697 69.8703127,13.9400461 L60.411469,19.4485592 L60.470989,19.3871908 L58.7013056,19.3042039 L58.7013056,21.0727303 L58.7013056,21.2317303 L58.7158396,21.2163882 C58.7497522,21.5678618 58.977451,21.9074803 59.428696,22.1655066 L69.0010431,27.6517039 C70.0267258,28.2388882 71.7514231,28.1942566 72.8546204,27.5526776 L83.1550499,21.5532171 C83.6575099,21.2610197 83.9322711,20.8955987 83.9994042,20.5273882 L84.0305484,20.5273882 L84.0305484,18.5594145 Z" id="Fill-9" fill="#EAEAEA"></path>
                        <path d="M83.2965139,17.5229158 L73.7234747,12.0367184 C72.6991762,11.4495342 70.9730946,11.4934684 69.8705895,12.1357447 L59.5694679,18.1352053 C58.4669627,18.7774816 58.4032901,19.7747184 59.4289729,20.3612053 L69.0013199,25.8481 C70.0263106,26.4345868 71.7510079,26.3906526 72.8542051,25.7483763 L83.1553268,19.7496132 C84.258524,19.1066395 84.3215045,18.1107974 83.2965139,17.5229158" id="Fill-11" fill="#F5F6F7"></path>
                        <path d="M46.0535713,19.8717921 L44.5884091,19.4345421 L44.3787047,20.0998316 L35.7462209,15.1527 C34.7212302,14.5655158 32.9965329,14.6101474 31.8933356,15.2524237 L22.4344919,20.7609368 L22.494012,20.6988711 L20.7243286,20.6165816 L20.7243286,22.3851079 L20.7243286,22.3851079 L20.7243286,22.5434105 L20.7388625,22.5287658 C20.7727751,22.8802395 21.0004739,23.2191605 21.451719,23.4778842 L31.024066,28.9633842 C32.0490567,29.5512658 33.7744461,29.5066342 34.8776433,28.8643579 L45.1780729,22.8655947 C45.6805329,22.5733974 45.955294,22.2072789 46.0224271,21.8397658 L46.0535713,21.8397658 L46.0535713,19.8717921 Z" id="Fill-13" fill="#EAEAEA"></path>
                        <path d="M45.31926,18.8352237 L35.7462209,13.3490263 C34.7212302,12.7618421 32.9965329,12.8057763 31.8933356,13.4480526 L21.5929061,19.4468158 C20.4897088,20.0897895 20.4267283,21.0863289 21.451719,21.6735132 L31.024066,27.1604079 C32.0490567,27.7468947 33.7744461,27.7029605 34.8776433,27.0606842 L45.1780729,21.0612237 C46.2812701,20.4189474 46.3442506,19.4224079 45.31926,18.8352237" id="Fill-15" fill="#F5F6F7"></path>
                        <path d="M63.5231912,31.02355 L62.0580289,30.5863 L61.8483246,31.2515895 L53.2158407,26.3044579 C52.19085,25.7179711 50.4661527,25.7619053 49.3629554,26.4041816 L39.9041118,31.9126947 L39.9636318,31.8506289 L38.1932563,31.7683395 L38.1932563,33.5368658 L38.1932563,33.5368658 L38.1932563,33.6951684 L38.2084824,33.6805237 C38.2417029,34.0319974 38.4694017,34.3716158 38.9213388,34.6296421 L48.4936858,40.1158395 C49.5186765,40.7030237 51.2440659,40.6583921 52.3472632,40.0168132 L62.6476927,34.0173526 C63.1494606,33.7251553 63.4249139,33.3590368 63.4920469,32.9915237 L63.5231912,32.9915237 L63.5231912,31.02355 Z" id="Fill-17" fill="#EAEAEA"></path>
                        <path d="M62.7888798,29.9870513 L53.2158407,24.5008539 C52.19085,23.9136697 50.4661527,23.9576039 49.3629554,24.5998803 L39.0618338,30.5993408 C37.9593287,31.2416171 37.8963481,32.2388539 38.9213388,32.8253408 L48.4936858,38.3122355 C49.5186765,38.8987224 51.2440659,38.8547882 52.3472632,38.2125118 L62.6476927,32.2130513 C63.75089,31.570775 63.8138705,30.5742355 62.7888798,29.9870513" id="Fill-19" fill="#F5F6F7"></path>
                        <path d="M25.5459373,32.3358579 L24.0807751,31.8986079 L23.8710707,32.5638974 L15.2385868,27.6167658 C14.2135961,27.0295816 12.4888988,27.0742132 11.3857016,27.7164895 L1.92685788,33.2250026 L1.98637793,33.1629368 L0.216694516,33.07995 L0.216694516,34.8491737 L0.216694516,34.8491737 L0.216694516,35.0074763 L0.231228483,34.9921342 C0.264448977,35.3443053 0.492839876,35.6832263 0.944084924,35.94195 L10.516432,41.42745 C11.5421147,42.0153316 13.266812,41.9700026 14.3700093,41.3284237 L24.6704388,35.3296605 C25.1728988,35.0367658 25.44766,34.6713447 25.5147931,34.3031342 L25.5459373,34.3031342 L25.5459373,32.3358579 Z" id="Fill-21" fill="#EAEAEA"></path>
                        <path d="M24.8116259,31.2986618 L15.2385868,25.8131618 C14.2135961,25.2252803 12.4888988,25.2699118 11.3857016,25.9121882 L1.08527202,31.9109513 C-0.0179252251,32.5532276 -0.0809057456,33.5504645 0.944084924,34.1376487 L10.516432,39.6238461 C11.5421147,40.2110303 13.266812,40.1663987 14.3700093,39.5241224 L24.6704388,33.5253592 C25.7736361,32.8830829 25.8366166,31.8865434 24.8116259,31.2986618" id="Fill-23" fill="#F5F6F7"></path>
                        <path d="M43.0152111,43.4876158 L41.5507409,43.0503658 L41.3403445,43.7156553 L32.7085527,38.7685237 C31.6828699,38.1820368 29.9581726,38.2259711 28.8556674,38.8682474 L19.3961317,44.3767605 L19.4556517,44.3146947 L17.6859683,44.2324053 L17.6859683,46.0009316 L17.6859683,46.0009316 L17.6859683,46.1592342 L17.7005023,46.1445895 C17.7344149,46.4960632 17.9621137,46.8349842 18.4133587,47.0937079 L27.9863978,52.5799053 C29.0113885,53.1670895 30.7360858,53.1224579 31.8392831,52.4808789 L42.1397126,46.4814184 C42.6421726,46.1892211 42.9176259,45.8231026 42.9840669,45.4555895 L43.0152111,45.4555895 L43.0152111,43.4876158 Z" id="Fill-25" fill="#EAEAEA"></path>
                        <path d="M42.2812458,42.4511171 L32.7082066,36.9649197 C31.683216,36.3777355 29.9585186,36.4216697 28.8553214,37.0639461 L18.5541998,43.0634066 C17.4516946,43.7056829 17.388022,44.7029197 18.4137048,45.2894066 L27.9860518,50.7763013 C29.0110425,51.3627882 30.7364319,51.3188539 31.8396291,50.6765776 L42.1400587,44.6771171 C43.2432559,44.0348408 43.3062364,43.0383013 42.2812458,42.4511171" id="Fill-27" fill="#F5F6F7"></path>
                        <path d="M102.585302,31.1331763 L101.120832,30.6959263 L100.910435,31.3612158 L92.2779514,26.4140842 C91.2536528,25.8269 89.5282633,25.8715316 88.4250661,26.5138079 L78.9655303,32.0223211 L79.0257425,31.9602553 L77.255367,31.8772684 L77.255367,33.6464921 L77.255367,33.6464921 L77.255367,33.8047947 L77.270593,33.79015 C77.3045056,34.1416237 77.5322044,34.4805447 77.9834495,34.7392684 L87.5557965,40.2247684 C88.5814793,40.81265 90.3061766,40.7673211 91.4093738,40.1257421 L101.709803,34.1269789 C102.212263,33.8340842 102.487025,33.4686632 102.553466,33.1004526 L102.585302,33.1004526 L102.585302,31.1331763 Z" id="Fill-29" fill="#EAEAEA"></path>
                        <path d="M101.851267,30.0959803 L92.2782282,24.6104803 C91.2532375,24.0225987 89.5278481,24.0672303 88.4253429,24.7095066 L78.1242213,30.7082697 C77.0217162,31.3505461 76.9580435,32.3477829 77.9837263,32.9349671 L87.5560733,38.4211645 C88.581064,39.0083487 90.3057613,38.9637171 91.4089586,38.3214408 L101.71008,32.3226776 C102.813277,31.6804013 102.875566,30.6838618 101.851267,30.0959803" id="Fill-31" fill="#F5F6F7"></path>
                        <path d="M77.3305975,47.3688197 L75.1601919,46.439925 L75.3325232,47.2307408 L65.4957964,41.5897276 C64.3351554,40.9237408 62.6083818,40.8456355 61.6394507,41.4146882 L36.5932743,56.138925 L35.3385085,55.6235697 L35.3385085,57.3732671 L35.3558108,57.3788461 C35.3232824,57.8439908 35.6478743,58.3474908 36.3275103,58.7373197 L47.1726175,64.9564513 C48.3339506,65.6224382 50.0607242,65.7005434 51.0296553,65.1314908 L76.6904109,50.0453197 C77.089749,49.8103066 77.2876877,49.5013724 77.3132952,49.1729118 L77.3305975,49.1729118 L77.3305975,47.3688197 Z" id="Fill-33" fill="#C68C46"></path>
                        <path d="M76.3418034,46.0591618 L65.4960041,39.8400303 C64.3346709,39.1740434 62.6085894,39.0959382 61.6396583,39.6656882 L35.9782106,54.7511618 C35.0099716,55.3202145 35.1656927,56.3223329 36.3277179,56.9876224 L47.1728251,63.2074513 C48.3341583,63.8727408 50.0609319,63.9508461 51.0291709,63.3817934 L76.6906186,48.2963197 C77.6588576,47.7272671 77.5031365,46.7251487 76.3418034,46.0591618" id="Fill-35" fill="#DD9E4A"></path>
                        <polygon id="Fill-37" fill="#F5F6F7" points="52.9457858 54.1334329 51.3345918 53.2338276 58.8008979 48.8592355 60.412784 49.7595382"></polygon>
                        <polygon id="Fill-39" fill="#F5F6F7" points="51.5818768 50.1092684 53.3467156 49.0757684 60.16453 52.8834 58.4003833 53.9175974"></polygon>
                    </g>
                </g>
            </g>
            <g id="Group-45" mask="url(#mask-2)">
                <g transform="translate(-20.000000, 13.000000)">
                    <g id="Group-3" stroke-width="1" fill="none" transform="translate(0.000000, 1.726726)">
                        <mask id="mask-4" fill="white">
                            <use xlink:href="#path-3"></use>
                        </mask>
                        <g id="Clip-2"></g>
                        <path d="M101.891938,6.69574528 C101.126892,7.13046226 99.8111146,7.08206604 98.9564146,6.58791509 C98.1017146,6.09376415 98.0291377,5.34065094 98.7950377,4.90593396 C99.5609377,4.47121698 100.875007,4.51961321 101.730561,5.01376415 C102.585261,5.50791509 102.657838,6.2610283 101.891938,6.69574528 L101.891938,6.69574528 Z M109.367361,7.49810377 L109.112915,7.72565094 L95.8381685,0.0544245283 L1.49329154,53.6044245 L-8.53846154e-05,53.5195189 L-8.53846154e-05,54.451783 L14.4982223,62.8302736 L110.33733,8.43291509 L110.33733,7.50065094 L109.367361,7.49810377 Z" id="Fill-1" fill="#C68C46" mask="url(#mask-4)"></path>
                    </g>
                    <g id="Group-6" stroke-width="1" fill="none" transform="translate(0.000000, 0.028613)">
                        <mask id="mask-6" fill="white">
                            <use xlink:href="#path-5"></use>
                        </mask>
                        <g id="Clip-5"></g>
                        <path d="M98.9568415,7.35410377 C98.1012877,6.85995283 98.0287108,6.10683962 98.7954646,5.6729717 C99.5605108,5.23740566 100.87458,5.28495283 101.730134,5.77995283 C102.585688,6.27495283 102.658265,7.02721698 101.892365,7.46193396 C101.126465,7.8975 99.8115415,7.84825472 98.9568415,7.35410377 L98.9568415,7.35410377 Z M95.8385954,0.820613208 L-0.000512307692,55.2179717 L14.4986492,63.5964623 L110.336903,9.19910377 L95.8385954,0.820613208 Z" id="Fill-4" fill="#DD9E4A" mask="url(#mask-6)"></path>
                    </g>
                    <polygon id="Fill-7" fill="#C68C46" points="95.8016238 8.79639623 88.8820546 4.79733962 89.8110392 4.27007547 96.7314623 8.26828302"></polygon>
                    <polygon id="Fill-9" fill="#C68C46" points="91.1987954 11.4091132 84.2792262 7.4100566 85.2082108 6.88279245 92.12778 10.881"></polygon>
                    <polygon id="Fill-11" fill="#C68C46" points="86.5951985 14.0217453 79.6756292 10.0226887 80.6054677 9.49542453 87.5250369 13.4936321"></polygon>
                    <polygon id="Fill-13" fill="#C68C46" points="81.9924554 16.6344623 75.0728862 12.6354057 76.0018708 12.1081415 82.9222938 16.1071981"></polygon>
                    <polygon id="Fill-15" fill="#C68C46" points="77.3897123 19.2470943 70.4701431 15.2480377 71.3991277 14.7207736 78.3186969 18.7198302"></polygon>
                    <polygon id="Fill-17" fill="#C68C46" points="72.7861154 21.8597264 65.8665462 17.8606698 66.7955308 17.3334057 73.7159538 21.3324623"></polygon>
                    <polygon id="Fill-19" fill="#C68C46" points="68.1833723 24.4724434 61.2638031 20.4733868 62.1927877 19.9461226 69.1132108 23.9451792"></polygon>
                    <polygon id="Fill-21" fill="#C68C46" points="63.5805438 27.0850755 56.6609746 23.0860189 57.5899592 22.5587547 64.5095285 26.5578113"></polygon>
                    <polygon id="Fill-23" fill="#C68C46" points="58.9769469 29.6977925 52.0573777 25.6987358 52.9863623 25.1714717 59.9067854 29.1705283"></polygon>
                    <polygon id="Fill-25" fill="#C68C46" points="54.3742038 32.3104245 47.4546346 28.3113679 48.3836192 27.7841038 55.3040423 31.7831604"></polygon>
                    <polygon id="Fill-27" fill="#C68C46" points="49.7714608 34.9231415 42.8518915 30.9240849 43.7808762 30.3968208 50.7004454 34.3958774"></polygon>
                    <polygon id="Fill-29" fill="#C68C46" points="45.1678638 37.5357736 38.2482946 33.536717 39.1772792 33.0094528 46.0977023 37.0085094"></polygon>
                    <polygon id="Fill-31" fill="#C68C46" points="40.5651208 40.1484906 33.6455515 36.149434 34.5745362 35.6221698 41.4941054 39.6212264"></polygon>
                    <polygon id="Fill-33" fill="#C68C46" points="35.9615238 42.7611226 29.0419546 38.7629151 29.9709392 38.2348019 36.8913623 42.2338585"></polygon>
                    <polygon id="Fill-35" fill="#C68C46" points="31.3586954 45.3738396 24.4391262 41.3756321 25.3681108 40.8475189 32.2885338 44.8465755"></polygon>
                    <polygon id="Fill-37" fill="#C68C46" points="26.7559523 47.9864717 19.8363831 43.9882642 20.7653677 43.4601509 27.6849369 47.4592075"></polygon>
                    <polygon id="Fill-39" fill="#C68C46" points="22.1523554 50.5991887 15.2327862 46.6009811 16.1617708 46.0728679 23.0821938 50.0719245"></polygon>
                </g>
            </g>
        </g>
    </g>
</svg>