<?xml version="1.0" encoding="UTF-8"?>
<svg width="24px" height="24px" viewBox="0 0 24 24" version="1.1" xmlns="http://www.w3.org/2000/svg" xmlns:xlink="http://www.w3.org/1999/xlink">
    <title>Icon/common/list_view_1</title>
    <g id="Icon/common/list_view_1" stroke="none" stroke-width="1" fill="none" fill-rule="evenodd">
        <path d="M3.5,16 C4.329,16 5,16.671 5,17.5 C5,18.329 4.329,19 3.5,19 C2.671,19 2,18.329 2,17.5 C2,16.671 2.671,16 3.5,16 Z M21,16.5 C21.552,16.5 22,16.948 22,17.5 C22,18.052 21.552,18.5 21,18.5 L21,18.5 L8,18.5 C7.448,18.5 7,18.052 7,17.5 C7,16.948 7.448,16.5 8,16.5 L8,16.5 Z M3.5,10.5 C4.329,10.5 5,11.171 5,12 C5,12.829 4.329,13.5 3.5,13.5 C2.671,13.5 2,12.829 2,12 C2,11.171 2.671,10.5 3.5,10.5 Z M21,11 C21.552,11 22,11.448 22,12 C22,12.552 21.552,13 21,13 L21,13 L8,13 C7.448,13 7,12.552 7,12 C7,11.448 7.448,11 8,11 L8,11 Z M3.5,5 C4.329,5 5,5.671 5,6.5 C5,7.329 4.329,8 3.5,8 C2.671,8 2,7.329 2,6.5 C2,5.671 2.671,5 3.5,5 Z M21,5.5 C21.552,5.5 22,5.948 22,6.5 C22,7.052 21.552,7.5 21,7.5 L21,7.5 L8,7.5 C7.448,7.5 7,7.052 7,6.5 C7,5.948 7.448,5.5 8,5.5 L8,5.5 Z" id="Combined-Shape" fill="#000000"></path>
    </g>
</svg>